# xmcd
#
# Track frame offsets:
#	150
#	14205
#	27706
#	41212
#	56384
#	69157
#	80269
#	94215
#	109847
#	122441
#	138110
#	150097
#	162703
#	173035
#	182726
#	193976
#	208115
#	221572
#	236012
#	248991
#	261762
#	275511
#	288964
#
# Disc length: 4109 seconds
#
# Revision: 1
# Processed by: cddbd v1.5.1PL0 Copyright (c) Steve Scherf et al.
# Submitted via: dBpowerAMP V4.0
#
DISCID=52100b17
DTITLE=Homer - The Iliad
DYEAR=1900
DGENRE=blues
TTITLE0=Book 15 c
TTITLE1=Book 15 d
TTITLE2=Book 15 e
TTITLE3=Book 15 f
TTITLE4=Book 15 g
TTITLE5=Book 15 h
TTITLE6=Book 15 i
TTITLE7=Book 15 j
TTITLE8=Book 15 k
TTITLE9=Book 15 l
TTITLE10=Book 15 m
TTITLE11=Book 15 n
TTITLE12=Book 15 o
TTITLE13=Book 15 p
TTITLE14=Book 16 a
TTITLE15=Book 16 b
TTITLE16=Book 16 c
TTITLE17=Book 16 d
TTITLE18=Book 16 e
TTITLE19=Book 16 f
TTITLE20=Book 16 g
TTITLE21=Book 16 h
TTITLE22=Book 16 i
EXTD=
EXTT0=
EXTT1=
EXTT2=
EXTT3=
EXTT4=
EXTT5=
EXTT6=
EXTT7=
EXTT8=
EXTT9=
EXTT10=
EXTT11=
EXTT12=
EXTT13=
EXTT14=
EXTT15=
EXTT16=
EXTT17=
EXTT18=
EXTT19=
EXTT20=
EXTT21=
EXTT22=
PLAYORDER=
